<svg xmlns="http://www.w3.org/2000/svg" viewBox="0 0 30 29"><g fill="none" fill-rule="evenodd"><g stroke="#919EAB" stroke-linejoin="round" stroke-width="1.25"><path d="M29.375 12.604C29.375 19.08 22.94 24.33 15 24.33c-1.773 0-3.469-.261-5.036-.74l-8.26 3.845 3.235-6.457C2.276 18.85.626 15.884.626 12.604.625 6.125 7.06.875 15 .875s14.375 5.25 14.375 11.729z"/><path d="M15.625 19.625s6.875-5 6.875-8.705c0-4.272-5.625-5.625-6.875-.428-1.25-5.197-6.875-3.845-6.875.428 0 3.705 6.875 8.705 6.875 8.705z"/></g><path d="M0-1h30v30H0z"/></g></svg>