<svg xmlns="http://www.w3.org/2000/svg" viewBox="0 0 23 30"><g fill="none" fill-rule="evenodd"><path d="M21.625.625c-2.926 1.022-5 3.601-5 6.875 0-3.265-2.086-5.845-5-6.875-2.914 1.03-5 3.61-5 6.875 0-3.268-2.083-5.848-5-6.875v10c0 5.523 4.478 10 10 10 5.523 0 10-4.477 10-10v-10zm-15 6.875V10m10-2.5V10m-10 2.5v.625m10-.625v.625m-5 7.5v8.75m5.625-6.25a3.124 3.124 0 0 0-2.5 1.25l-3.125 5h5.625a3.124 3.124 0 0 0 2.5-1.25l2.5-5h-5zm-11.25 0c1.021 0 1.929.491 2.5 1.25l3.125 5H6a3.124 3.124 0 0 1-2.5-1.25l-2.5-5h5z" stroke="#919EAB" stroke-linecap="round" stroke-linejoin="round" stroke-width="1.25"/><path d="M-4 0h30v30H-4z"/></g></svg>