<svg xmlns="http://www.w3.org/2000/svg" viewBox="0 0 20 14"><g fill="none" fill-rule="evenodd"><path fill="#F44336" d="M19.151 1.35C18.61.366 18.026.185 16.821.116 15.616.048 12.612 0 10.001 0 7.389 0 4.375.034 3.178.116 1.98.197 1.39.37.845 1.348.3 2.325 0 4.02 0 7v.011c0 2.963.288 4.666.846 5.637.56.971 1.137 1.161 2.333 1.244C4.375 13.975 7.389 14 10 14c2.611 0 5.625-.042 6.819-.112s1.787-.26 2.33-1.243c.566-.972.85-2.673.85-5.637V7c.001-2.98-.284-4.67-.849-5.65z"/><path fill="#FAFAFA" d="M8 11V3l6 4z"/></g></svg>