<?xml version="1.0" standalone="no"?>
<!DOCTYPE svg PUBLIC "-//W3C//DTD SVG 20010904//EN"
 "http://www.w3.org/TR/2001/REC-SVG-20010904/DTD/svg10.dtd">
<svg version="1.0" xmlns="http://www.w3.org/2000/svg"
 width="520.000000pt" height="520.000000pt" viewBox="0 0 520.000000 520.000000"
 preserveAspectRatio="xMidYMid meet">
<metadata>
Created by potrace 1.11, written by Peter Selinger 2001-2013
</metadata>
<g transform="translate(0.000000,520.000000) scale(0.100000,-0.100000)"
fill="#000000" stroke="none">
<path d="M2335 5189 c-22 -4 -78 -13 -125 -19 -322 -44 -690 -179 -985 -363
-318 -198 -638 -519 -836 -837 -99 -160 -207 -393 -267 -580 -31 -93 -78 -300
-92 -400 -6 -47 -15 -107 -21 -133 -12 -63 -12 -451 0 -514 6 -26 15 -86 21
-133 7 -47 25 -141 41 -210 221 -946 971 -1701 1914 -1925 77 -18 178 -38 225
-45 47 -6 107 -15 133 -21 63 -12 451 -12 514 0 26 6 86 15 133 21 324 44 690
179 985 363 316 197 639 520 832 832 182 293 309 634 358 955 8 58 20 130 25
161 13 72 13 446 0 518 -5 31 -17 103 -25 161 -49 321 -176 662 -358 955 -194
314 -515 634 -837 835 -158 99 -392 207 -580 268 -93 31 -300 78 -400 92 -47
6 -107 15 -133 21 -58 11 -465 10 -522 -2z m561 -1234 c161 -22 207 -30 340
-63 361 -91 688 -254 984 -490 113 -90 310 -286 400 -396 69 -86 211 -294 249
-366 l23 -45 -53 -90 c-148 -251 -338 -476 -559 -662 -377 -316 -791 -507
-1279 -589 -140 -24 -182 -26 -411 -26 -229 0 -270 2 -405 26 -283 49 -500
118 -740 236 -424 209 -780 524 -1032 912 -38 58 -80 127 -93 152 l-24 45 23
43 c98 178 257 387 424 557 410 416 933 674 1532 755 140 19 484 20 621 1z"/>
<path d="M2470 3584 c-321 -42 -615 -254 -760 -549 -74 -151 -94 -246 -94
-435 0 -190 21 -285 96 -437 125 -252 348 -438 623 -520 82 -24 105 -26 265
-26 161 0 182 2 265 27 388 116 664 433 716 822 16 123 5 291 -27 402 -45 158
-154 341 -261 443 -117 112 -293 211 -443 248 -84 21 -299 35 -380 25z"/>
</g>
</svg>
