<svg xmlns="http://www.w3.org/2000/svg" xmlns:xlink="http://www.w3.org/1999/xlink" width="32" height="21"><defs><rect id="a" width="32" height="21" rx="1.5"/><filter id="b" width="103.1%" height="104.8%" x="-1.6%" y="-2.4%" filterUnits="objectBoundingBox"><feMorphology in="SourceAlpha" radius="1" result="shadowSpreadInner1"/><feOffset in="shadowSpreadInner1" result="shadowOffsetInner1"/><feComposite in="shadowOffsetInner1" in2="SourceAlpha" k2="-1" k3="1" operator="arithmetic" result="shadowInnerInner1"/><feColorMatrix in="shadowInnerInner1" values="0 0 0 0 0 0 0 0 0 0 0 0 0 0 0 0 0 0 0.1 0"/></filter></defs><g fill="none" fill-rule="evenodd"><rect width="32" height="21" fill="#F4F6F7" rx="1.5"/><path fill="#4095DB" d="M0 1.5C0 .672.668 0 1.5 0h29c.828 0 1.5.674 1.5 1.5V5H0V1.5z"/><path fill="#F4B662" d="M0 16h32v3.5c0 .828-.668 1.5-1.5 1.5h-29C.673 21 0 20.326 0 19.5V16z"/><path fill="#0071CE" d="M12.854 13.9h1.574l.986-6.782h-1.575l-.985 6.781zm7.286-6.615A3.557 3.557 0 0 0 18.73 7c-1.557 0-2.653.92-2.663 2.238-.01.975.783 1.518 1.38 1.842.613.332.82.545.817.842-.004.454-.49.662-.943.662-.63 0-.965-.102-1.483-.355l-.202-.108-.22 1.518c.367.188 1.047.352 1.754.361 1.654 0 2.73-.91 2.742-2.316.006-.773-.414-1.36-1.323-1.843-.55-.314-.888-.523-.884-.84 0-.283.285-.584.902-.584.515-.01.888.122 1.179.26l.141.078.213-1.47zm2.097 4.21h1.308l-.365-1.957-.106-.585c-.08.254-.219.665-.21.647 0 0-.496 1.505-.627 1.895zm-12.41-.688l-.553-3.116c-.095-.43-.372-.557-.714-.572H6.021L6 7.26a6.06 6.06 0 0 1 1.654.745l1.4 5.89 1.667-.002 2.48-6.768h-1.668L9.99 11.747l-.165-.94zM24.18 7.125h-1.217c-.377 0-.66.12-.825.562l-2.339 6.215h1.654s.27-.836.331-1.02l2.017.004c.047.237.192 1.016.192 1.016h1.461L24.18 7.125z"/><use fill="#E5E5E5" fill-opacity="0" xlink:href="#a"/><use fill="#000" filter="url(#b)" xlink:href="#a"/></g></svg>