<svg xmlns="http://www.w3.org/2000/svg" viewBox="0 0 138 45"><path fill-rule="evenodd" clip-rule="evenodd" fill="#D3D8DD" d="M4 0h130c2.2 0 4 1.8 4 4v37c0 2.2-1.8 4-4 4H4c-2.2 0-4-1.8-4-4V4c0-2.2 1.8-4 4-4z"/><path d="M46.1 15.2h2.5c2.1 0 3.9-1.7 3.9-3.9 0-2.1-1.7-3.8-3.9-3.8h-2.5c-.1 0-.2.1-.2.2V15c0 .1 0 .2.2.2zm.6-7h1.7c1.8 0 3.1 1.3 3.1 3.1s-1.3 3.1-3.1 3.1h-1.7V8.2zm9.3 7.1c1.4 0 2.6-1.2 2.6-2.7 0-1.4-1.1-2.6-2.6-2.6s-2.6 1.2-2.6 2.6c0 1.5 1.2 2.7 2.6 2.7zm0-4.6c1 0 1.7.9 1.7 1.9 0 1.1-.7 1.9-1.7 1.9s-1.7-.9-1.7-1.9c-.1-1 .7-1.9 1.7-1.9zm4.9 4.5c0 .1.1.1.2.1h.1c.1 0 .2-.1.2-.1l1.5-3.8 1.5 3.8c0 .1.1.1.2.1h.1c.1 0 .2-.1.2-.1l1.4-4.8c.1-.2 0-.3-.2-.3h-.4c-.1 0-.2.1-.2.1l-.9 3.5-1.4-3.6c0-.1-.1-.1-.2-.1h-.1c-.1 0-.2.1-.2.1l-1.4 3.6-.9-3.5c0-.1-.1-.1-.2-.1h-.4c-.2 0-.2.1-.2.3l1.3 4.8zm6.9 0h.3c.1 0 .2-.1.2-.2v-3.5s.6-.7 1.6-.7c.7 0 1.1.5 1.1 1.4V15c0 .1.1.2.2.2h.3c.1 0 .2-.1.2-.2v-2.7c0-1.3-.4-2.3-1.8-2.3-1.1 0-1.7.6-1.7.6l-.1-.4c0-.1-.1-.2-.2-.2h-.2c-.1 0-.2.1-.2.2V15c.1.1.2.2.3.2zm6.6-.2V7.7c0-.1-.1-.2-.2-.2h-.3c-.1 0-.2.1-.2.2V15c0 .1.1.2.2.2h.3c.1 0 .2-.1.2-.2zm4 .3c1.4 0 2.6-1.2 2.6-2.7 0-1.4-1.1-2.6-2.6-2.6s-2.6 1.2-2.6 2.6c0 1.5 1.2 2.7 2.6 2.7zm0-4.6c1 0 1.7.9 1.7 1.9 0 1.1-.7 1.9-1.7 1.9s-1.7-.9-1.7-1.9c-.1-1 .7-1.9 1.7-1.9zm5.8-.7c-.8 0-1.5.2-1.7.3-.1.1-.2.1-.2.3l.1.3c0 .1.1.2.2.1.2-.1.8-.3 1.5-.3s.8.5.8 1.4c0 0-.5-.2-1.1-.2-1.3 0-2 .7-2 1.7s.7 1.7 1.6 1.7c.8 0 1.3-.4 1.6-.6l.1.3c0 .1.1.2.2.2h.2c.1 0 .2-.1.2-.2v-2.8c.1-1.6-.2-2.2-1.5-2.2zm.8 3.9c-.2.3-.8.7-1.4.7-.6 0-.9-.4-.9-.9 0-.6.5-1 1.2-1 .5 0 .9.1 1.1.2v1zm4.5 1.4c1 0 1.6-.7 1.6-.7l.1.3c0 .1.1.2.2.2h.2c.1 0 .3-.1.3-.2V7.7c0-.1-.1-.2-.3-.2h-.3c-.1 0-.2.1-.2.2v2.6s-.6-.3-1.4-.3c-1.5 0-2.4 1.2-2.4 2.6-.1 1.5.9 2.7 2.2 2.7zm.2-4.6c.7 0 1.3.3 1.3.3v2.7s-.5.8-1.4.8c-.9 0-1.6-.9-1.6-1.9 0-1 .6-1.9 1.7-1.9zm8.7 4.6c1.4 0 2.6-1.2 2.6-2.7 0-1.4-1.1-2.6-2.6-2.6s-2.6 1.2-2.6 2.6c0 1.5 1.2 2.7 2.6 2.7zm0-4.6c1 0 1.7.9 1.7 1.9 0 1.1-.7 1.9-1.7 1.9s-1.8-.9-1.8-1.9c0-1 .8-1.9 1.8-1.9zm6.3-.7c-1.1 0-1.7.6-1.7.6l-.1-.4c0-.1-.1-.2-.2-.2h-.2c-.1 0-.2.1-.2.2V15c0 .1.1.2.2.2h.3c.1 0 .2-.1.2-.2v-3.5s.6-.7 1.6-.7c.7 0 1.1.5 1.1 1.4V15c0 .1.1.2.2.2h.3c.1 0 .2-.1.2-.2v-2.7c.2-1.3-.2-2.3-1.7-2.3zm-5.4 14.8c-1.3 0-2.2.7-2.2.7l-.1-.3c-.1-.2-.1-.2-.3-.2h-.3c-.2 0-.3.2-.3.3v10.2c0 .2.2.3.3.3h.5c.2 0 .3-.2.3-.3v-3.8s.8.6 2 .6c2 0 3.4-1.7 3.4-3.8.1-2-1.3-3.7-3.3-3.7zm-.2 6.5c-1 0-1.8-.6-1.8-.6v-3.9s.7-.9 1.9-.9c1.5 0 2.3 1.3 2.3 2.7 0 1.6-1 2.7-2.4 2.7zm6.4-10h-.5c-.2 0-.3.2-.3.3v10.2c0 .2.2.3.3.3h.5c.2 0 .3-.2.3-.3V21.6c.1-.1-.1-.3-.3-.3zm5.6 3.5c-1.2 0-2.1.3-2.5.5-.2.1-.3.2-.2.4l.2.4c.1.2.2.3.3.2.3-.1 1.2-.4 2.1-.4 1 0 1.2.7 1.2 2 0 0-.8-.2-1.5-.2-1.9 0-2.9 1-2.9 2.4 0 1.5 1 2.4 2.2 2.4 1.1 0 1.9-.5 2.2-.9l.1.5c0 .2.1.3.3.3h.3c.2 0 .3-.2.3-.3v-4c.2-2.4-.2-3.3-2.1-3.3zm1.1 5.6c-.3.5-1.1 1-2 1-.8 0-1.3-.6-1.3-1.3 0-.9.7-1.4 1.7-1.4.7 0 1.3.2 1.5.3v1.4zm9.3-5.4h-.6c-.1 0-.3.1-.3.2l-2.4 5.7-2-5.7c0-.1-.2-.2-.3-.2h-.7c-.3 0-.4.2-.3.4l2.6 6.8-1.4 3.3c-.1.2 0 .4.3.4h.6c.1 0 .3-.1.3-.2l4.5-10.3c.1-.2-.1-.4-.3-.4zM83 22h2v11h-2zm-3.5 3.9s-.7-1-2-.9c-1.7 0-3.5 1.4-3.5 3.8s1.9 3.8 3.5 3.8c1.5 0 2-1 2-1v.8c0 .5-.2 2.1-1.9 2.1-1.5 0-1.9-1.4-1.9-1.4l-1.4.6s.8 2.2 3.2 2.2c2.4 0 3.5-1.9 3.5-3.7v-7h-1.5v.7zm-1.9 5.3c-1.1 0-2-1-2-2.3 0-1.3.9-2.3 2-2.3s2 1 2 2.3c0 1.2-.9 2.3-2 2.3zM69 25c-2.2 0-4 1.8-4 4s1.8 4 4 4 4-1.8 4-4-1.8-4-4-4zm0 6.4c-1.2 0-2.2-1.1-2.2-2.4 0-1.3 1-2.4 2.2-2.4s2.2 1.1 2.2 2.4c0 1.3-1 2.4-2.2 2.4zM89.6 25c-2.7 0-3.6 2.5-3.6 4 0 1.6 1.2 4 3.8 4 2.1 0 3.2-1.8 3.2-1.8l-1.3-.9s-.7 1.1-1.9 1.1c-1.5 0-1.9-1.2-1.9-1.2L93 28s-.7-3-3.4-3zm1.5 2.4l-3.4 1.5s-.3-1.9 1.8-2.3c.9-.2 1.6.8 1.6.8zM51 26v2h3.5c-.3 2.3-1.8 3.3-3.8 3.3-2.2 0-4.1-1.9-4.1-4.3s1.8-4.3 4.1-4.3c1.1 0 2.1.4 2.8 1.2l1.1-1.2c-.9-1.1-2.3-1.7-3.9-1.7-3.1 0-5.6 2.7-5.6 6s2.5 6 5.6 6c3 0 5.6-2.2 5.3-6v-1h-5zm10-1c-2.2 0-4 1.8-4 4s1.8 4 4 4 4-1.8 4-4-1.8-4-4-4zm0 6.4c-1.2 0-2.2-1.1-2.2-2.4 0-1.3 1-2.4 2.2-2.4s2.2 1.1 2.2 2.4c0 1.3-1 2.4-2.2 2.4zM28.6 17.7L14.4 9.5l11.2 11.2zm4.4 2.5l-3-1.7-3.3 3.3 3.3 3.3 3-1.7c.5-.4.8-.9.8-1.6 0-.6-.3-1.2-.8-1.6zM11.5 8.8c-.7.3-1.1 1-1.1 1.8V33c0 .8.4 1.4 1.1 1.8l13-13-13-13zm2.9.7zm0 24.6l14.2-8.2-3-3z" fill="#FFF"/></svg>