<svg xmlns="http://www.w3.org/2000/svg" viewBox="0 0 138 45"><path fill-rule="evenodd" clip-rule="evenodd" fill="#D3D8DD" d="M4 0h130c2.2 0 4 1.8 4 4v37c0 2.2-1.8 4-4 4H4c-2.2 0-4-1.8-4-4V4c0-2.2 1.8-4 4-4z"/><path d="M45.5 15.2H48c2.1 0 3.9-1.7 3.9-3.9 0-2.1-1.7-3.8-3.9-3.8h-2.5c-.1 0-.2.1-.2.2V15c0 .1 0 .2.2.2zm.6-7h1.7c1.8 0 3.1 1.3 3.1 3.1s-1.3 3.1-3.1 3.1h-1.7V8.2zm9.3 1.8c-1.4 0-2.6 1.2-2.6 2.6 0 1.5 1.1 2.7 2.6 2.7s2.6-1.2 2.6-2.7c-.1-1.4-1.2-2.6-2.6-2.6zm0 4.6c-1 0-1.7-.9-1.7-1.9 0-1 .7-1.9 1.7-1.9s1.7.9 1.7 1.9c0 1-.7 1.9-1.7 1.9zm10.1-4.5h-.4c-.1 0-.2.1-.2.1l-.9 3.5-1.4-3.6c0-.1-.1-.1-.2-.1h-.1c-.1 0-.2.1-.2.1l-1.4 3.6-.9-3.5c0-.1-.1-.1-.2-.1H59c-.2 0-.2.1-.2.3l1.4 4.8c0 .1.1.1.2.1h.1c.1 0 .2-.1.2-.1l1.5-3.8 1.5 3.8c0 .1.1.1.2.1h.1c.1 0 .2-.1.2-.1l1.4-4.8c.1-.2.1-.3-.1-.3zm2.3 4.9v-3.5s.6-.7 1.6-.7c.7 0 1.1.5 1.1 1.4V15c0 .1.1.2.2.2h.3c.1 0 .2-.1.2-.2v-2.7c0-1.3-.4-2.3-1.8-2.3-1.1 0-1.7.6-1.7.6l-.1-.4c0-.1-.1-.2-.2-.2h-.2c-.1 0-.2.1-.2.2V15c0 .1.1.2.2.2h.3c.2 0 .3-.1.3-.2zm5.4.2h.3c.1 0 .2-.1.2-.2V7.7c0-.1-.1-.2-.2-.2h-.3c-.1 0-.2.1-.2.2V15c0 .1.1.2.2.2zm4.6-5.2c-1.4 0-2.6 1.2-2.6 2.6 0 1.5 1.1 2.7 2.6 2.7s2.6-1.2 2.6-2.7c-.1-1.4-1.2-2.6-2.6-2.6zm0 4.6c-1 0-1.8-.9-1.8-1.9 0-1 .7-1.9 1.8-1.9 1 0 1.7.9 1.7 1.9 0 1-.7 1.9-1.7 1.9zm3.5-.9c0 1 .7 1.7 1.6 1.7.8 0 1.3-.4 1.6-.6l.1.3c0 .1.1.2.2.2h.2c.1 0 .2-.1.2-.2v-2.8c0-1.5-.3-2.1-1.6-2.1-.8 0-1.5.2-1.8.3-.1.1-.2.1-.2.3l.1.3c0 .1.1.2.2.1.2-.1.8-.3 1.5-.3s.8.5.8 1.4c0 0-.5-.2-1.1-.2-1.1-.1-1.8.6-1.8 1.6zm3.1.2c-.2.3-.8.7-1.4.7-.6 0-.9-.4-.9-.9 0-.6.5-1 1.2-1 .5 0 .9.1 1.1.2v1zm4.4 1.4c1 0 1.6-.7 1.6-.7l.1.3c0 .1.1.2.2.2h.2c.1 0 .3-.1.3-.2V7.7c0-.1-.1-.2-.3-.2h-.3c-.1 0-.2.1-.2.2v2.6s-.6-.3-1.4-.3c-1.5 0-2.4 1.2-2.4 2.6 0 1.5 1 2.7 2.2 2.7zm.3-4.6c.7 0 1.3.3 1.3.3v2.7s-.5.8-1.4.8c-.9 0-1.6-.9-1.6-1.9 0-1 .6-1.9 1.7-1.9zm11.2 1.9c0-1.4-1.1-2.6-2.6-2.6s-2.6 1.2-2.6 2.6c0 1.5 1.1 2.7 2.6 2.7s2.6-1.2 2.6-2.7zm-4.3 0c0-1 .7-1.9 1.7-1.9s1.7.9 1.7 1.9c0 1.1-.7 1.9-1.7 1.9s-1.7-.8-1.7-1.9zm8.1-2.6c-1.1 0-1.7.6-1.7.6l-.1-.4c0-.1-.1-.2-.2-.2h-.2c-.1 0-.2.1-.2.2V15c0 .1.1.2.2.2h.3c.1 0 .2-.1.2-.2v-3.5s.6-.7 1.6-.7c.7 0 1.1.5 1.1 1.4V15c0 .1.1.2.2.2h.3c.1 0 .2-.1.2-.2v-2.7c.2-1.3-.2-2.3-1.7-2.3zM50.6 20.4c-.1-.1-.1-.2-.3-.2h-.2c-.2 0-.3.1-.3.2l-5.5 12.1c-.1.2 0 .5.3.5h.7c.2 0 .3-.1.3-.2l1.3-3h6.4l1.3 3c0 .1.1.2.3.2h.7c.3 0 .4-.2.3-.5l-5.3-12.1zm-3.1 8.3l2.6-5.9h.1c.9 2 1.7 3.9 2.6 5.9h-5.3zm13.7-4.2c-1.5 0-2.5.8-2.5.8l-.1-.4c-.1-.2-.1-.3-.3-.3H58c-.2 0-.4.2-.4.4v11.8c0 .2.2.4.4.4h.5c.2 0 .4-.2.4-.4v-4.4s.9.7 2.3.7c2.3 0 3.9-1.9 3.9-4.4 0-2.3-1.6-4.2-3.9-4.2zm-.2 7.4c-1.2 0-2.1-.7-2.1-.7v-4.6s.9-1 2.2-1c1.7 0 2.7 1.5 2.7 3.1 0 1.9-1.2 3.2-2.8 3.2zm10.1-7.4c-1.5 0-2.5.8-2.5.8l-.1-.4c-.1-.2-.1-.3-.3-.3h-.3c-.2 0-.4.2-.4.4v11.8c0 .2.2.4.4.4h.5c.2 0 .4-.2.4-.4v-4.4s.9.7 2.3.7c2.3 0 3.9-1.9 3.9-4.4-.1-2.3-1.7-4.2-3.9-4.2zm-.3 7.4c-1.2 0-2.1-.7-2.1-.7v-4.6s.9-1 2.2-1c1.7 0 2.7 1.5 2.7 3.1 0 1.9-1.2 3.2-2.8 3.2zM85 25.8c-1.5-.6-2.4-1.2-2.4-2.5 0-.8.6-2 2.5-2 1 0 1.6.3 2.4.7.3.2.5.2.6-.1l.2-.3c.2-.3 0-.6-.1-.6 0 0-1.3-.9-3.1-.9-2.9 0-3.8 2-3.8 3.2 0 2.1 1.2 2.8 3.2 3.7 2.1.9 3.2 1.6 3.2 2.8 0 1.1-1 2.1-2.4 2.1-1.6 0-3-1.2-3.1-1.3-.3-.2-.4-.1-.6.1l-.3.3c-.3.3 0 .5.1.6.2.2 1.7 1.5 3.8 1.5 2.1 0 3.9-1.4 3.9-3.3-.1-2.1-1.7-3-4.1-4zm10.6 5.8c-.1-.2-.2-.4-.5-.2s-.9.5-1.6.5c-.5 0-.7-.3-.7-1.2v-5h2.4c.2 0 .4-.2.4-.4V25c0-.2-.2-.4-.4-.4h-2.4v-2.3c0-.2-.2-.4-.4-.4h-.6c-.2 0-.4.2-.4.4v2.3h-1.1c-.3 0-.4.2-.4.4v.4c0 .2.2.4.4.4h1.1v5.1c0 1.3.3 2.3 1.9 2.3 1.1 0 2-.4 2.3-.7.2-.1.3-.3.1-.5l-.1-.4zm5.7-7.1c-2.3 0-4.2 2-4.2 4.3 0 2.4 1.9 4.4 4.2 4.4s4.2-2 4.2-4.4c0-2.4-1.9-4.3-4.2-4.3zm0 7.4c-1.6 0-2.9-1.4-2.9-3.2 0-1.7 1.2-3.1 2.9-3.1s2.8 1.4 2.8 3.1c.1 1.8-1.1 3.2-2.8 3.2zm10.2-7.4c-1.7 0-2.6 1.1-2.6 1.1l-.1-.6c-.1-.2-.2-.3-.4-.3h-.3c-.2 0-.4.2-.4.4v7.5c0 .2.2.4.4.4h.5c.2 0 .4-.2.4-.4v-5.8s.6-1.1 2.2-1.1c.4 0 .7.1.9.2.2.1.4.1.5-.2l.2-.6c.4-.6-.6-.6-1.3-.6zm6.5 0c-2.5 0-4 2-4 4.3 0 2.4 1.5 4.4 4 4.4 1.4 0 2.5-.6 3-1 .3-.2.2-.3.1-.6l-.2-.3c-.2-.3-.3-.3-.6-.1-.5.3-1.2.7-2.3.7-1.5 0-2.7-1.5-2.7-2.8h6c.2 0 .4-.1.4-.4v-.5c0-2.1-1.6-3.7-3.7-3.7zm-2.7 3.5c.2-1.3 1.3-2.4 2.7-2.4 1.4 0 2.4 1.2 2.4 2.4h-5.1zm-84.9-6.7c0-3.6 3-5.3 3.1-5.4-1.7-2.4-4.3-2.8-5.2-2.8-2.2-.2-4.3 1.3-5.5 1.3-1.1 0-2.9-1.3-4.7-1.2-2.4 0-4.7 1.4-5.9 3.6-2.6 4.2-.7 10.7 1.7 14.2 1.2 1.7 2.6 3.7 4.5 3.6 1.8-.1 2.5-1.2 4.7-1.2s2.8 1.2 4.7 1.1c1.9 0 3.2-1.8 4.4-3.5 1.4-2 1.9-3.9 2-4 0 0-3.8-1.4-3.8-5.7zm-3.6-10.6c1-1.2 1.7-2.9 1.5-4.5-1.4.1-3.2 1-4.2 2.2-.9 1.1-1.7 2.8-1.5 4.4 1.5 0 3.2-.9 4.2-2.1z" fill="#FFF"/></svg>