<svg xmlns="http://www.w3.org/2000/svg" xmlns:xlink="http://www.w3.org/1999/xlink" width="32" height="21"><defs><rect id="a" width="32" height="21" rx="1.5"/><filter id="b" width="103.1%" height="104.8%" x="-1.6%" y="-2.4%" filterUnits="objectBoundingBox"><feMorphology in="SourceAlpha" radius="1" result="shadowSpreadInner1"/><feOffset in="shadowSpreadInner1" result="shadowOffsetInner1"/><feComposite in="shadowOffsetInner1" in2="SourceAlpha" k2="-1" k3="1" operator="arithmetic" result="shadowInnerInner1"/><feColorMatrix in="shadowInnerInner1" values="0 0 0 0 0 0 0 0 0 0 0 0 0 0 0 0 0 0 0.1 0"/></filter><linearGradient id="c" x1="100%" x2="3.381%" y1="43.985%" y2="43.985%"><stop offset="0%" stop-color="#43C311"/><stop offset="100%" stop-color="#288C00"/></linearGradient><path id="d" d="M1.746 0c-.101 0-.203.003-.302.013-.39.04-.758.214-1.021.483a1.465 1.465 0 0 0-.39.71c-.028.13-.031.26-.031.392v1.426c0 .033-.009.036.031.036h1.872c.204 0 .41-.007.614.01.2.017.405.07.567.184a.62.62 0 0 1 .243.691c-.075.245-.3.409-.556.477a1.236 1.236 0 0 1-.086.02c-.017.002-.04.002-.055.008-.007.004-.026.008-.012.02.003.003.018.003.03.003a1.53 1.53 0 0 1 .25.04h-.002c.24.06.471.19.582.402a.638.638 0 0 1-.148.759c-.166.153-.399.232-.63.258-.115.013-.231.01-.347.01H.09c-.017 0-.068-.008-.083 0-.008.005-.005.012-.005.025v2.995c0 .006-.004.03 0 .035.005.006.047.001.057.001h2.263c.371 0 .725-.09 1.026-.297.409-.283.65-.732.652-1.203V.004H2.147C2.024.004 1.898 0 1.773 0h-.027zm-.744 3.61c-.004.014 0 .042 0 .056V4.4c0 .02-.006.086.003.096.008.009.044 0 .054 0h.394c.073 0 .146.002.22 0a.292.292 0 0 0 .243-.137.606.606 0 0 0 .076-.414.537.537 0 0 0-.058-.177.3.3 0 0 0-.225-.165c-.04-.004-.083-.002-.124-.002h-.561L1.011 3.6c-.004 0-.006.002-.009.01zm.447.89h-.447v.833c0 .014-.004.043 0 .056.006.019.061.008.08.008h.561c.073 0 .143-.007.208-.062a.483.483 0 0 0 .145-.315.587.587 0 0 0-.097-.406.274.274 0 0 0-.225-.114h-.225z"/><linearGradient id="e" x1=".258%" x2="101.258%" y1="49.75%" y2="49.75%"><stop offset="0%" stop-color="#21469E"/><stop offset="100%" stop-color="#1E81EB"/></linearGradient><path id="f" d="M1.359.02C1.129.055.908.137.715.257.27.536.004 1.007.002 1.503v3.678c0 .028 0 .022.033.037l.113.048c.304.124.623.219.953.256.237.027.49.034.715-.053.18-.07.322-.2.396-.368a.826.826 0 0 0 .06-.337V3.106c0-.01-.005-.038 0-.046.007-.01.063-.003.079-.003h1.316V4.79c0 .173-.028.346-.104.505a1.004 1.004 0 0 1-.35.393c-.365.247-.85.311-1.292.33a7.093 7.093 0 0 1-.949-.027 6.494 6.494 0 0 1-.97-.154v3.13c0 .005-.004.026 0 .03.006.007.066 0 .078 0h1.868c.276 0 .559.018.828-.045a1.61 1.61 0 0 0 1.075-.827C3.963 7.901 4 7.663 4 7.42V0H1.724c-.122 0-.244.002-.365.02"/><linearGradient id="g" x1="100%" x2="0%" y1="50%" y2="50%"><stop offset="0%" stop-color="#F42D3E"/><stop offset="100%" stop-color="#9C0017"/></linearGradient><path id="h" d="M1.52.004c-.176.01-.35.047-.512.108a1.595 1.595 0 0 0-.832.712 1.414 1.414 0 0 0-.174.676v1.963l.034-.026c.04-.03.082-.058.125-.085a2.54 2.54 0 0 1 .894-.31c.255-.043.515-.062.775-.067.255-.004.51.004.765.03.259.025.516.065.771.116l.094.02c.017.003.08.008.09.02.006.008 0 .042 0 .051v.582a3.409 3.409 0 0 0-.982-.305c-.408-.06-.869-.057-1.22.168-.34.218-.459.604-.422.971a.95.95 0 0 0 .609.807c.355.141.768.122 1.14.054.305-.056.596-.158.874-.286v.581c0 .01.007.044 0 .053-.008.011-.073.016-.09.02a7.735 7.735 0 0 1-.972.146 6.565 6.565 0 0 1-.769.016 4.687 4.687 0 0 1-.778-.087c-.338-.069-.673-.188-.938-.398v3.418c0 .007-.005.036 0 .042.011.012.102.002.123.002H1.79c.234 0 .473.011.706-.004a1.68 1.68 0 0 0 1.105-.51c.268-.283.4-.643.4-1.017V.001H1.82L1.674 0c-.051 0-.103 0-.155.004"/></defs><g fill="none" fill-rule="evenodd"><rect width="32" height="21" fill="#F4F6F7" rx="1.5"/><use fill="#E5E5E5" fill-opacity="0" xlink:href="#a"/><use fill="#000" filter="url(#b)" xlink:href="#a"/><use fill="url(#c)" transform="translate(19 6)" xlink:href="#d"/><use fill="url(#e)" transform="translate(9 6)" xlink:href="#f"/><use fill="url(#g)" transform="translate(14 6)" xlink:href="#h"/></g></svg>