<svg xmlns="http://www.w3.org/2000/svg" xmlns:xlink="http://www.w3.org/1999/xlink" width="32" height="21"><defs><rect id="a" width="32" height="21" rx="1.5"/><filter id="b" width="103.1%" height="104.8%" x="-1.6%" y="-2.4%" filterUnits="objectBoundingBox"><feMorphology in="SourceAlpha" radius="1" result="shadowSpreadInner1"/><feOffset in="shadowSpreadInner1" result="shadowOffsetInner1"/><feComposite in="shadowOffsetInner1" in2="SourceAlpha" k2="-1" k3="1" operator="arithmetic" result="shadowInnerInner1"/><feColorMatrix in="shadowInnerInner1" values="0 0 0 0 0 0 0 0 0 0 0 0 0 0 0 0 0 0 0.1 0"/></filter><linearGradient id="c" x1="70.752%" x2="32.476%" y1="100%" y2="0%"><stop offset="0%" stop-color="#009BE0"/><stop offset="100%" stop-color="#006BA8"/></linearGradient></defs><g fill="none" fill-rule="evenodd"><rect width="32" height="21" fill="#F4F6F7" rx="1.5"/><use fill="#E5E5E5" fill-opacity="0" xlink:href="#a"/><use fill="#000" filter="url(#b)" xlink:href="#a"/><path fill="url(#c)" d="M7.313 9.98c2.703.013 5.17-2.224 5.17-4.947C12.484 2.057 10.017 0 7.314 0H4.987C2.252-.001 0 2.057 0 5.033c0 2.723 2.252 4.96 4.987 4.947h2.326z" transform="translate(10 5.5)"/><path fill="#F4F6F7" d="M14.997 5.916c-2.5 0-4.525 2.045-4.526 4.569 0 2.523 2.026 4.567 4.526 4.568 2.5-.001 4.526-2.045 4.526-4.568 0-2.524-2.026-4.568-4.526-4.57zm-2.87 4.569a2.9 2.9 0 0 1 1.843-2.703v5.404a2.898 2.898 0 0 1-1.842-2.701zm3.896 2.703V7.782a2.898 2.898 0 0 1 1.843 2.703 2.899 2.899 0 0 1-1.843 2.703z"/></g></svg>