<svg xmlns="http://www.w3.org/2000/svg" xmlns:xlink="http://www.w3.org/1999/xlink" width="32" height="21"><defs><radialGradient id="a" cx="33.582%" cy="18.955%" r="100%" fx="33.582%" fy="18.955%" gradientTransform="matrix(0 1 -.65625 0 .46 -.146)"><stop offset="0%" stop-color="#71C8F2"/><stop offset="100%" stop-color="#0071BD"/></radialGradient><rect id="b" width="32" height="21" rx="1.5"/><filter id="c" width="103.1%" height="104.8%" x="-1.6%" y="-2.4%" filterUnits="objectBoundingBox"><feMorphology in="SourceAlpha" radius="1" result="shadowSpreadInner1"/><feOffset in="shadowSpreadInner1" result="shadowOffsetInner1"/><feComposite in="shadowOffsetInner1" in2="SourceAlpha" k2="-1" k3="1" operator="arithmetic" result="shadowInnerInner1"/><feColorMatrix in="shadowInnerInner1" values="0 0 0 0 0 0 0 0 0 0 0 0 0 0 0 0 0 0 0.1 0"/></filter></defs><g fill="none" fill-rule="evenodd"><rect width="32" height="21" fill="url(#a)" rx="1.5"/><use fill="#E5E5E5" fill-opacity="0" xlink:href="#b"/><use fill="#000" filter="url(#c)" xlink:href="#b"/><path stroke="#FFF" d="M8.11 10.567l.423-1.164-.455-.165v-.006l-.008.003-.007-.003v.006l-.457.16.411 1.17h-.62l.47.67.196-.54.188.535.472-.666H8.11zm-.032-1.33l-.008-.002-.007.003v.494h.015v-.494zm.583 3.15H7.454L7.052 13.5H4.838l2.323-6h1.841l2.298 6H9.049l-.388-1.113zm5.133-2.485l.791-2.402h2.446v6h-2.054v-1.174l-.415 1.174h-1.574l-.417-1.166V13.5h-2.054v-6h2.44l.837 2.402zm-.02 2.826l-.022.062.023.016.022-.015-.023-.063zm5.373-3.304v.072h2.48v1.854h-2.48v.226h2.76V13.5h-4.886v-6h4.829v1.924h-2.703zM20.85 8.5h.424l.038-.038-.038-.038h-.424V8.5zm-.222 1.996h.354l.073-.073-.073-.073h-.354v.146zm.28 2.08h.424l.037-.038-.037-.038h-.425v.076zm3.097-2.163l.024-.034v-.001l-.024.035zm-1.19-.03L20.818 7.5h2.536l.735 1.169.761-1.169h2.455l-1.986 2.889 2.127 3.111h-2.56l-.851-1.315-.867 1.315H20.69l2.124-3.117z"/></g></svg>