<svg xmlns="http://www.w3.org/2000/svg" xmlns:xlink="http://www.w3.org/1999/xlink" width="32" height="21"><defs><linearGradient id="a" x1="0%" y1="0%" y2="100%"><stop offset="0%" stop-color="#EDF1F3"/><stop offset="100%" stop-color="#D3DADF"/></linearGradient><rect id="b" width="32" height="21" rx="1.5"/><filter id="c" width="103.1%" height="104.8%" x="-1.6%" y="-2.4%" filterUnits="objectBoundingBox"><feMorphology in="SourceAlpha" radius="1" result="shadowSpreadInner1"/><feOffset in="shadowSpreadInner1" result="shadowOffsetInner1"/><feComposite in="shadowOffsetInner1" in2="SourceAlpha" k2="-1" k3="1" operator="arithmetic" result="shadowInnerInner1"/><feColorMatrix in="shadowInnerInner1" values="0 0 0 0 0 0 0 0 0 0 0 0 0 0 0 0 0 0 0.1 0"/></filter><linearGradient id="d" x1="76.2%" x2="17.295%" y1="89.009%" y2="18.91%"><stop offset="0%" stop-color="#FFA700"/><stop offset="100%" stop-color="#E75A10"/></linearGradient><path id="e" d="M13.17 1.846a1.833 1.833 0 0 1-1.827 1.84 1.833 1.833 0 0 1-1.827-1.84c0-1.015.818-1.838 1.827-1.838 1.01 0 1.828.823 1.828 1.838"/><filter id="f" width="127.4%" height="127.2%" x="-13.7%" y="-13.6%" filterUnits="objectBoundingBox"><feOffset dx="1" dy="1" in="SourceAlpha" result="shadowOffsetInner1"/><feComposite in="shadowOffsetInner1" in2="SourceAlpha" k2="-1" k3="1" operator="arithmetic" result="shadowInnerInner1"/><feColorMatrix in="shadowInnerInner1" values="0 0 0 0 0.314067815 0 0 0 0 0.00146227912 0 0 0 0 0.00146227912 0 0 0 0.5 0"/></filter></defs><g fill="none" fill-rule="evenodd"><rect width="32" height="21" fill="url(#a)" rx="1.5"/><use fill="#E5E5E5" fill-opacity="0" xlink:href="#b"/><use fill="#000" filter="url(#c)" xlink:href="#b"/><path fill="#212D34" d="M7.016 11.333c-.21.191-.484.275-.917.275h-.18V9.322h.18c.433 0 .696.078.917.28.232.207.371.53.371.86 0 .332-.139.664-.37.871m-.783-2.596H5.25v3.456h.978c.52 0 .896-.123 1.226-.4.392-.325.624-.817.624-1.326 0-1.02-.758-1.73-1.844-1.73m2.152 3.456h.67V8.736h-.67zm2.308-2.13c-.402-.15-.52-.249-.52-.435 0-.218.21-.383.5-.383.2 0 .365.083.54.28l.35-.462a1.498 1.498 0 0 0-1.009-.384c-.608 0-1.071.425-1.071.99 0 .477.215.72.845.949.262.093.396.155.463.196.134.088.2.213.2.358 0 .28-.22.488-.52.488-.319 0-.576-.161-.73-.461l-.434.42c.31.455.68.657 1.19.657.696 0 1.185-.466 1.185-1.135 0-.549-.226-.798-.989-1.078m1.2.404c0 1.016.793 1.804 1.813 1.804.288 0 .536-.057.84-.202v-.793c-.268.27-.505.378-.809.378-.675 0-1.154-.492-1.154-1.192 0-.664.495-1.187 1.123-1.187.32 0 .562.115.84.389V8.87a1.703 1.703 0 0 0-.824-.213 1.812 1.812 0 0 0-1.83 1.81m7.967.591l-.916-2.322h-.732l1.458 3.546h.36l1.484-3.546h-.726zm1.957 1.135h1.9v-.585h-1.23v-.933h1.185v-.586h-1.185v-.767h1.23v-.586h-1.9zm3.209-1.865h-.195V9.28h.206c.417 0 .644.176.644.512 0 .348-.227.535-.655.535m1.345-.571c0-.647-.443-1.02-1.216-1.02h-.994v3.456h.67v-1.389h.087l.927 1.389h.824l-1.081-1.456c.505-.104.783-.45.783-.98"/><g transform="translate(5.25 8.63)"><use fill="url(#d)" xlink:href="#e"/><use fill="#000" filter="url(#f)" xlink:href="#e"/></g></g></svg>