<svg xmlns="http://www.w3.org/2000/svg" viewBox="0 0 244 18"><path fill="#FF2D55" d="M97.7 2L84.5 8.2c-.2.1-.4.4-.2.7.1.2.3.3.4.3h6c.3 0 .5.2.5.5v6c0 .3.2.5.5.5.2 0 .4-.1.4-.3l6.2-13.2c.1-.2 0-.5-.2-.7h-.4z"/><path d="M5.7 9.2L.2 1C0 .7.2.3.6.3h3.2c.2 0 .3.1.4.2l3.5 5 3.5-5c.1-.1.2-.2.4-.2h3.2c.4 0 .6.4.4.7L9.5 9.2v7.9c0 .2-.2.5-.5.5H6c-.3 0-.5-.2-.5-.5l.2-7.9zM26.8 0c4.9 0 8.9 4 8.9 8.9s-4 8.9-8.9 8.9-8.9-4-8.9-8.9 4-8.9 8.9-8.9zm0 13.8c2.8 0 4.9-2.2 4.9-4.9S29.5 4 26.8 4s-4.9 2.3-4.9 4.9 2.2 4.9 4.9 4.9zM49.6 0c2.1 0 4.4.9 6 2.3.2.2.2.5 0 .7l-2 2.1c-.2.2-.5.2-.7 0-.9-.9-2-1.2-3.3-1.2-2.7 0-4.8 2.3-4.8 4.9s2.2 4.9 4.8 4.9c.7 0 1.5-.1 2.2-.4v-1.5h-1.6c-.3 0-.5-.2-.5-.4V9c0-.3.2-.5.5-.5h4.9c.2 0 .5.2.5.5v6.6c0 .2-.1.3-.2.4 0 0-2.6 1.6-6.1 1.6-4.9 0-8.9-3.9-8.9-8.8S44.6 0 49.6 0zm10.9 16.9L68.2.3c.1-.1.2-.3.4-.3h.2c.2 0 .3.1.4.3l7.7 16.6c.1.3 0 .6-.4.6h-2.8c-.5 0-.7-.1-.9-.6l-.9-2h-6.7l-.9 2c-.1.3-.4.6-.9.6h-2.7c-.1 0-.3-.3-.2-.6zm10.2-5.3l-1.9-4.1-1.9 4.1h3.8zM108.8.7c0-.2.2-.5.5-.5h7.4c3.2 0 5.3 2.4 5.3 5.3 0 2.3-1.4 4.1-3.7 4.9l3.4 6.2c.2.3 0 .7-.4.7H118c-.2 0-.4-.1-.4-.2l-3.3-6.5h-1.7V17c0 .2-.2.5-.5.5h-3c-.3 0-.5-.2-.5-.5V.7zm7.7 6.9c1 0 1.9-.8 1.9-2s-.9-1.9-1.9-1.9h-3.7v3.9h3.7zM128.3.7c0-.2.2-.5.5-.5H139c.3 0 .5.2.5.5v2.7c0 .2-.2.5-.5.5h-6.8V7h5.6c.2 0 .5.2.5.5v2.7c0 .3-.2.5-.5.5h-5.6v3.4h6.8c.3 0 .5.2.5.5v2.7c0 .2-.2.5-.5.5h-10.2c-.3 0-.5-.2-.5-.5V.7zm20.1 3.2h-3.6c-.3 0-.5-.2-.5-.5V.7c0-.2.2-.5.5-.5h11c.3 0 .5.2.5.5v2.7c0 .2-.2.5-.5.5h-3.6V17c0 .2-.2.5-.5.5h-3c-.2 0-.5-.2-.5-.5l.2-13.1zM161.5.7c0-.2.2-.5.5-.5h7.4c3.2 0 5.3 2.4 5.3 5.3 0 2.3-1.4 4.1-3.7 4.9l3.4 6.2c.2.3 0 .7-.4.7h-3.3c-.2 0-.4-.1-.4-.2l-3.3-6.5h-1.7V17c0 .2-.2.5-.5.5h-3c-.3 0-.5-.2-.5-.5V.7zm7.7 6.9c1 0 1.9-.8 1.9-2s-.9-1.9-1.9-1.9h-3.7v3.9h3.7zM181 .7c0-.2.2-.5.5-.5h10.2c.3 0 .5.2.5.5v2.7c0 .2-.2.5-.5.5h-6.8V7h5.6c.2 0 .5.2.5.5v2.7c0 .3-.2.5-.5.5h-5.6v3.4h6.8c.3 0 .5.2.5.5v2.7c0 .2-.2.5-.5.5h-10.2c-.3 0-.5-.2-.5-.5V.7zm15.9 16.2L204.6.3c.1-.1.2-.3.4-.3h.2c.2 0 .3.1.4.3l7.7 16.6c.1.3 0 .6-.4.6h-2.8c-.5 0-.7-.1-.9-.6l-.9-2h-6.7l-.9 2c-.1.3-.4.6-.9.6h-2.7c-.2 0-.4-.3-.2-.6zm10-5.3L205 7.5l-1.9 4.1h3.8zm12.8-7.7h-3.6c-.3 0-.5-.2-.5-.5V.7c0-.2.2-.5.5-.5h11c.3 0 .5.2.5.5v2.7c0 .2-.2.5-.5.5h-3.5V17c0 .2-.2.5-.5.5h-3c-.2 0-.5-.2-.5-.5.1 0 .1-13.1.1-13.1zm13 12c-.2-.2-.3-.4-.1-.7l1.1-2c.2-.3.6-.3.9-.2.7.5 2 1.4 3.5 1.4 1 0 1.7-.6 1.7-1.5 0-1-.9-1.7-2.6-2.5-2.4-1.2-4.7-2.5-4.7-5.4 0-2.5 1.9-4.9 5.7-4.9 2.6 0 4.5 1.3 5.2 1.9.3.2.2.6.1.8l-1.3 1.9c-.2.3-.6.5-1.1.2-.6-.4-2-1.3-3.4-1.3-1 0-1.5.6-1.5 1.4s1 1.5 2.7 2.3c2.2 1.1 4.9 2.3 4.9 5.6 0 2.6-2.2 5.1-5.8 5.1-3-.2-4.7-1.6-5.3-2.1z" fill="#212B36"/></svg>