<svg xmlns="http://www.w3.org/2000/svg" viewBox="0 0 30 25">
    <g fill="none" fill-rule="evenodd">
        <g stroke="#919EAB" stroke-linejoin="round" stroke-width="1.25">
            <path d="M9.899 23.875h9.476V18.25c0-.625-3.75-2.5-6.875-3.75V12s1.25-.438 1.25-3.125c.869 0 1.25-2.5.04-2.5 0-.265.958-1.635.585-3.125-.625-2.5-6.875-2.5-7.5 0-2.631-.539-.625 2.765-.625 3.125-1.25 0-.87 2.5 0 2.5C6.25 11.563 7.5 12 7.5 12v2.5C4.375 15.75.625 17.625.625 18.25v5.625h9.274z"/>
            <path stroke-linecap="round" d="M22.5 23.875h6.875V18.25c0-.625-3.125-1.5-5.625-2.5v-1.875s1.25-.35 1.25-2.5c.696 0 .968-2.5 0-2.5 0-.211 1.014-1.334.625-2.5C25 4.5 20 4.5 19.375 6.375c-2.106-.431-.625 2.213-.625 2.5-1 0-.696 2.5 0 2.5 0 2.15 1.25 2.5 1.25 2.5v1.25"/>
        </g>
        <path d="M0-3h30v30H0z"/>
    </g>
</svg>
