<svg xmlns="http://www.w3.org/2000/svg" viewBox="0 0 23 30">
    <g fill="none" fill-rule="evenodd">
        <g stroke="#919EAB" stroke-linecap="round" stroke-linejoin="round" stroke-width="1.25">
            <path d="M21.625.625c-2.926 1.022-5 3.601-5 6.875 0-3.265-2.086-5.845-5-6.875-2.914 1.03-5 3.61-5 6.875 0-3.268-2.083-5.848-5-6.875v10c0 5.523 4.478 10 10 10 5.523 0 10-4.477 10-10v-10zM6.625 7.5V10M16.625 7.5V10M6.625 12.5v.625M16.625 12.5v.625M11.625 20.625v8.75M17.25 23.125a3.124 3.124 0 0 0-2.5 1.25l-3.125 5h5.625a3.124 3.124 0 0 0 2.5-1.25l2.5-5h-5zM6 23.125c1.021 0 1.929.491 2.5 1.25l3.125 5H6a3.124 3.124 0 0 1-2.5-1.25l-2.5-5h5z"/>
        </g>
        <path d="M-4 0h30v30H-4z"/>
    </g>
</svg>
