<svg xmlns="http://www.w3.org/2000/svg" viewBox="0 0 24 24">
    <g fill="none" fill-rule="evenodd" stroke="#919EAB" stroke-linecap="round" stroke-linejoin="round">
        <path d="M10.5 17A1.5 1.5 0 0 1 9 18.5H2A1.5 1.5 0 0 1 .5 17L5.5.5l5 16.5zM5.5 17a3.5 3.5 0 0 1 3.945-3.472M1.552 13.529A3.5 3.5 0 0 1 5.5 17M5.5 12.5a2.501 2.501 0 0 1 2.876-2.472M2.612 10.029A2.502 2.502 0 0 1 5.5 12.5"/>
        <circle cx="16.5" cy="10.5" r="6.5"/>
        <path d="M16.5 15.5c0-1.571 1.075-3.057 2.5-3.5M14 10.5a2.5 2.5 0 0 1 2.5 2.5M16.5 23.5v-15M5.5 23.5v-16"/>
    </g>
</svg>
