<svg xmlns="http://www.w3.org/2000/svg" viewBox="0 0 22 17">
    <g fill="none" fill-rule="evenodd" stroke="currentColor" stroke-linejoin="round">
        <path d="M6 9.323v2.044l-3.941 1.412A2.36 2.36 0 0 0 .5 15.012V16.5h15v-1.488c0-1-.616-1.895-1.559-2.233L10 11.367V9.322"/>
        <path d="M11.947 5.236c0 2.618-1.768 4.741-3.947 4.741-2.181 0-3.947-2.123-3.947-4.741C4.053 2.621 5.819.5 8 .5c2.18 0 3.947 2.121 3.947 4.736z"/>
        <path d="M11.916 4.811c-.132.018-.241.006-.374.033-1.345.258-2.208-.229-2.949-1.525-.443.852-1.831 1.525-2.972 1.525a3.152 3.152 0 0 1-1.528-.369"/>
        <g stroke-linecap="round">
            <path d="M14 .5c2.18 0 3.947 2.121 3.947 4.736 0 2.618-1.768 4.741-3.947 4.741"/>
            <path d="M17.916 4.811c-.132.018-.241.006-.374.033-1.345.258-2.208-.229-2.949-1.525M18.031 16.5H21.5v-1.488c0-1-.616-1.895-1.559-2.233L16 11.367V9.322"/>
        </g>
    </g>
</svg>
