<svg xmlns="http://www.w3.org/2000/svg" viewBox="0 0 13 16">
    <path fill="#D32F2F" fill-rule="nonzero" d="M6.717 0C2.332 0 0 2.81 0 5.874a4.292 4.292 0 0 0 2.065 3.755c.192.086.3.049.341-.13.037-.136.2-.791.285-1.1a.282.282 0 0 0-.068-.278 3.646 3.646 0 0 1-.757-2.211A4.31 4.31 0 0 1 6.457 1.7a3.93 3.93 0 0 1 4.249 3.947c0 2.625-1.389 4.441-3.194 4.441A1.431 1.431 0 0 1 6 8.332c.377-1.05.66-2.132.847-3.232a1.24 1.24 0 0 0-1.284-1.363A2.118 2.118 0 0 0 3.721 6.1c-.007.496.095.987.3 1.439 0 0-1 4.064-1.191 4.824a10.782 10.782 0 0 0 .079 3.537.106.106 0 0 0 .192.049 12.6 12.6 0 0 0 1.656-3.119c.124-.457.633-2.31.633-2.31a2.764 2.764 0 0 0 2.332 1.112C10.786 11.637 13 8.944 13 5.6 12.988 2.4 10.246 0 6.717 0"/>
</svg>
