<svg xmlns="http://www.w3.org/2000/svg" viewBox="0 0 30 30">
    <path fill="#BA3B39" fill-rule="evenodd" d="M0 0h30v30H10.28c1.115-1.589 1.822-2.956 2.124-4.102.118-.442.465-1.803 1.042-4.082.275.508.756.944 1.444 1.309a4.653 4.653 0 0 0 2.212.547c2.372 0 4.308-.96 5.809-2.881 1.5-1.92 2.25-4.352 2.25-7.295 0-1.094-.229-2.152-.688-3.174a8.806 8.806 0 0 0-1.897-2.715c-.806-.787-1.805-1.419-2.997-1.894C18.386 5.238 17.095 5 15.706 5c-1.363 0-2.637.186-3.823.557-1.186.37-2.189.869-3.008 1.494a10.563 10.563 0 0 0-2.113 2.138 8.806 8.806 0 0 0-1.307 2.5 8.324 8.324 0 0 0-.423 2.588c0 1.328.26 2.5.777 3.516s1.28 1.732 2.29 2.148a.57.57 0 0 0 .462 0c.137-.065.232-.188.285-.37.13-.574.23-.97.295-1.192.078-.3.006-.573-.217-.82-.655-.808-.982-1.784-.982-2.93 0-1.953.678-3.623 2.034-5.01 1.356-1.387 3.129-2.08 5.317-2.08 1.953 0 3.476.527 4.57 1.582 1.095 1.055 1.642 2.422 1.642 4.102 0 2.187-.442 4.05-1.327 5.586-.884 1.536-2.021 2.304-3.41 2.304-.787 0-1.422-.283-1.907-.85-.485-.566-.636-1.24-.452-2.02.105-.444.278-1.046.52-1.807.243-.762.436-1.426.58-1.993.145-.566.217-1.051.217-1.455 0-.638-.174-1.168-.521-1.592-.347-.423-.842-.634-1.484-.634-.8 0-1.478.368-2.035 1.103-.557.736-.835 1.644-.835 2.725 0 .937.157 1.725.472 2.363L9.396 25.04c-.314 1.302-.36 2.956-.137 4.961H0V0z"/>
</svg>
