<?xml version="1.0" encoding="utf-8"?>
<svg version="1.1" id="Layer_1" xmlns="http://www.w3.org/2000/svg" xmlns:xlink="http://www.w3.org/1999/xlink" x="0px" y="0px"
	 viewBox="0 0 15 15" enable-background="new 0 0 15 15" xml:space="preserve">
<title>Icon question</title>
<circle cx="7.5" cy="7.5" r="7.5"/>
<g>
	<path fill="currentColor" d="M7.2,8.6V8.1C7.2,6.6,9,6.8,9,5.4c0-0.6-0.4-1.1-1.2-1.1c-1,0-1.4,0.6-1.7,0.8C6.1,5.3,6,5.3,5.9,5.2L5.6,5
		c-0.1-0.1-0.1-0.2,0-0.3c0,0,0.7-1.1,2.2-1.1c1.2,0,2.1,0.7,2.1,1.8C9.9,7,8,7.1,8,8.1v0.5c0,0.2-0.1,0.2-0.3,0.2H7.4
		C7.3,8.9,7.2,8.8,7.2,8.6z M7.6,10.9c0.4,0,0.7,0.3,0.7,0.7c0,0.4-0.3,0.7-0.7,0.7c-0.4,0-0.7-0.3-0.7-0.7
		C6.9,11.2,7.2,10.9,7.6,10.9z"/>
</g>
</svg>
