<svg xmlns="http://www.w3.org/2000/svg" viewBox="0 0 30 30">
    <path fill="#3D5873" fill-rule="evenodd" d="M0 0h30v30H0V0zm8.066 12.969h2.48v7.89c0 1.016.112 1.804.333 2.364.221.547.605 1.054 1.152 1.523.56.482 1.237.853 2.031 1.113.808.26 1.72.391 2.735.391.872 0 1.712-.091 2.52-.273.742-.17 1.614-.489 2.617-.957v-3.536c-1.146.73-2.279 1.094-3.399 1.094-.664 0-1.237-.15-1.719-.45-.377-.22-.631-.513-.761-.878-.144-.39-.215-1.23-.215-2.52V12.97h5.351V9.434H15.84V3.75h-3.203c-.144 1.172-.404 2.129-.782 2.871a6.268 6.268 0 0 1-1.523 1.934c-.625.52-1.38.93-2.266 1.23v3.184z"/>
</svg>
