<svg xmlns="http://www.w3.org/2000/svg" viewBox="0 0 16 13">
    <path fill="#03A9F4" fill-rule="nonzero" d="M16 1.539a6.841 6.841 0 0 1-1.89.518A3.268 3.268 0 0 0 15.553.244a6.572 6.572 0 0 1-2.08.794A3.281 3.281 0 0 0 7.8 3.281c-.003.251.023.502.076.748A9.281 9.281 0 0 1 1.114.6a3.281 3.281 0 0 0 1.008 4.382 3.239 3.239 0 0 1-1.482-.4v.036a3.294 3.294 0 0 0 2.629 3.218c-.28.075-.57.112-.861.109a2.879 2.879 0 0 1-.621-.056 3.312 3.312 0 0 0 3.065 2.285A6.59 6.59 0 0 1 0 11.528 9.239 9.239 0 0 0 5.032 13a9.272 9.272 0 0 0 9.324-9.758A6.558 6.558 0 0 0 16 1.539z"/>
</svg>
