<svg xmlns="http://www.w3.org/2000/svg" viewBox="0 0 16 16">
    <g fill="none" fill-rule="nonzero">
        <path fill="#4CAF50" d="M8 0a7.995 7.995 0 0 0-6.477 12.689l-1 2.972 3.077-.982A8 8 0 1 0 8 0z"/>
        <path fill="#FAFAFA" d="M12.657 11.3a2.255 2.255 0 0 1-1.57 1.129c-.418.089-.964.16-2.8-.6-1.622-.793-3-2.01-3.987-3.523a4.573 4.573 0 0 1-.95-2.413 2.555 2.555 0 0 1 .82-1.947c.225-.198.519-.3.818-.287.1 0 .188 0 .268.009.235.01.353.024.508.4.193.465.663 1.613.719 1.731.08.13.092.292.033.433a1.4 1.4 0 0 1-.259.367c-.118.136-.23.24-.348.386-.108.127-.23.263-.094.5.352.598.79 1.142 1.3 1.613a5.9 5.9 0 0 0 1.875 1.15c.188.09.412.054.564-.089a9.8 9.8 0 0 0 .625-.828.446.446 0 0 1 .574-.174c.216.075 1.359.64 1.594.757.235.117.39.174.447.273.062.376.015.763-.137 1.113z"/>
    </g>
</svg>
