<svg xmlns="http://www.w3.org/2000/svg" viewBox="0 0 30 30"><g fill="none" fill-rule="evenodd"><path stroke="#919EAB" stroke-linecap="round" stroke-linejoin="round" stroke-width="1.25" d="M15.307 11.912l.318-2.537h-15l2.5 20H8.75"/><path d="M28.125 21.875h-17.5v-1.25a5 5 0 0 1 5-5h7.5a5 5 0 0 1 5 5v1.25zm1.25 1.875c0 1.035-.84 1.875-1.875 1.875H11.25a1.876 1.876 0 0 1 0-3.75H27.5c1.035 0 1.875.84 1.875 1.875zm-1.25 3.125a2.5 2.5 0 0 1-2.5 2.5h-12.5a2.5 2.5 0 0 1-2.5-2.5v-1.25h17.5v1.25z" stroke="#919EAB" stroke-linejoin="round" stroke-width="1.25"/><path stroke="#919EAB" stroke-linecap="round" stroke-linejoin="round" stroke-width="1.25" d="M6.181 23.701L8.714 2.017A1.25 1.25 0 0 1 10.247.658l5.378 1.283"/><path fill="#919EAB" fill-rule="nonzero" d="M21.875 17.5a.624.624 0 1 0-.001 1.249.624.624 0 0 0 .001-1.249zm-5 0a.624.624 0 1 0-.001 1.249.624.624 0 0 0 .001-1.249zm2.5 1.25a.624.624 0 1 0-.001 1.249.624.624 0 0 0 .001-1.249z"/><path d="M0 0h30v30H0z"/></g></svg>