<svg xmlns="http://www.w3.org/2000/svg" viewBox="0 0 30 31"><path fill="#BA3B39" fill-rule="evenodd" d="M30 7h-5V1h-2v6h-6v2h6v6h2V9h5v21H17.858a7.85 7.85 0 0 0 .047-.856c0-1.25-.263-2.388-.788-3.413-.525-1.026-1.156-1.86-1.895-2.5a31.08 31.08 0 0 0-2.227-1.767 13.455 13.455 0 0 1-1.907-1.635c-.525-.553-.788-1.117-.788-1.694 0-.545.201-1.074.603-1.587a9.601 9.601 0 0 1 1.465-1.478 23.383 23.383 0 0 0 1.71-1.563c.566-.569 1.05-1.314 1.452-2.235.402-.922.603-1.96.603-3.113 0-1.443-.312-2.725-.935-3.847-.624-1.121-1.543-2.187-2.757-3.197h3.224L17.455 0H30v7zM2.71 0C1.726.348.823.792 0 1.331V0h2.71zM0 23.892v-7.576c1.255.651 2.67.977 4.246.977.361 0 .92-.032 1.674-.096-.345.785-.517 1.466-.517 2.043 0 .657.127 1.242.382 1.755.254.513.644 1.106 1.169 1.779-2.76.178-5.079.55-6.954 1.118zM.186 6.548c0-1.619.385-2.9 1.157-3.846.41-.529.947-.95 1.611-1.262a4.725 4.725 0 0 1 2.03-.47c1.05 0 2.01.329 2.88.986a7.22 7.22 0 0 1 2.08 2.488 14.99 14.99 0 0 1 1.193 3.113c.279 1.073.418 2.075.418 3.005 0 1.634-.434 2.908-1.304 3.822-.426.432-.968.78-1.624 1.045a5.118 5.118 0 0 1-1.92.397 4.71 4.71 0 0 1-2.374-.625 6.084 6.084 0 0 1-1.846-1.61c-.5-.658-.927-1.399-1.28-2.224a12.492 12.492 0 0 1-1.021-4.82zM0 30.01V26c.68-.449 1.404-.702 2.315-.99.91-.289 1.792-.49 2.645-.601a19.8 19.8 0 0 1 2.584-.169c.525 0 .919.016 1.181.048.05.033.349.24.899.625s.89.625 1.02.722c.132.096.432.328.9.697.467.368.783.645.947.83.164.183.406.464.726.84.32.377.541.71.664.998.123.288.242.625.357 1.01H0z"/></svg>