<svg xmlns="http://www.w3.org/2000/svg" viewBox="0 0 19 19"><g fill="none" fill-rule="evenodd"><g stroke="currentColor" stroke-linejoin="round"><path d="M6.72 8.234a2.83 2.83 0 0 0-2.532-1.567 2.833 2.833 0 0 0 0 5.666 2.83 2.83 0 0 0 2.531-1.567m8.094-3.746a2.833 2.833 0 1 0-2.533-1.567m0 8.094c-.94 1.875.424 4.099 2.533 4.099a2.833 2.833 0 0 0 0-5.667"/><path d="M14.813 7.02a2.831 2.831 0 0 1-2.533-1.567L6.72 8.234a2.81 2.81 0 0 1 0 2.532l5.56 2.78a2.831 2.831 0 0 1 2.533-1.567"/></g><path d="M1 1h17v17H1z"/></g></svg>