<svg xmlns="http://www.w3.org/2000/svg" viewBox="0 0 16 16"><g fill="none"><circle cx="8" cy="8" r="8" fill="#8BC34A"/><path fill="#37474F" d="M11.261 11.761a.5.5 0 0 1-.287-.091c-1.875-1.318-4.994-1.391-7.1-.9a.5.5 0 0 1-.227-.975c2.315-.536 5.775-.438 7.9 1.057a.5.5 0 0 1-.287.909h.001zm.978-1.961a.5.5 0 0 1-.292-.094C9.773 8.15 7.1 7.762 3.535 8.49a.5.5 0 0 1-.2-.979c3.857-.787 6.779-.347 9.2 1.388a.5.5 0 0 1-.292.906l-.004-.005zm.979-2.6a.5.5 0 0 1-.281-.086c-2.757-1.871-6.948-1.88-9.661-.92a.5.5 0 0 1-.333-.943C5.894 4.2 10.467 4.225 13.5 6.282a.5.5 0 0 1-.281.914l-.001.004z"/></g></svg>