<svg xmlns="http://www.w3.org/2000/svg" viewBox="0 0 18 23"><g fill="none" fill-rule="evenodd" stroke="#919eab" stroke-linejoin="round"><path d="M9 22s5.79-4.169 5.79-7.257c0-3.562-4.737-4.689-5.79-.356-1.053-4.333-5.79-3.206-5.79.356C3.21 17.831 9 22 9 22z"/><path stroke-linecap="round" d="M2.673 6.629a8.945 8.945 0 0 1 12.653 0m2.53-2.426C12.967-.686 5.039-.693.141 4.203m5.062 4.851a5.369 5.369 0 0 1 7.593 0m2.53-2.425a8.945 8.945 0 0 0-12.653 0m10.123 2.425a5.369 5.369 0 0 0-7.593 0"/></g></svg>