<svg xmlns="http://www.w3.org/2000/svg" viewBox="0 0 14 14">
    <g fill="none" fill-rule="evenodd" stroke="#168701" stroke-linecap="round" stroke-linejoin="round">
        <path d="M5.403 7.5H2.468v6h9.784v-6H8.338M1.489 4.5H13.23v3H1.489zM7.36 13.5v-9M10.142 3.086C9.282 3.965 7.375 4.5 7.375 4.5S7.9 2.551 8.76 1.672c.86-.879 1.347-.744 1.73-.354.382.39.513.889-.347 1.768zM4.577 3.086c.86.879 2.767 1.414 2.767 1.414s-.523-1.949-1.383-2.828C5.1.793 4.613.928 4.23 1.318c-.383.39-.514.889.346 1.768z"/>
    </g>
</svg>
