<svg xmlns="http://www.w3.org/2000/svg" viewBox="0 0 25 18">
    <g fill="none" fill-rule="evenodd" stroke="#919EAB" stroke-linejoin="round">
        <path d="M24.497 16.459c-2.505.52-4.06-1.98-4.06-1.98h-.003s-1.186 2.057-3.621 2.057c-2.334 0-3.615-2.057-3.615-2.057h-.003s-1.186 2.057-3.621 2.057c-2.334 0-3.615-2.057-3.615-2.057h-.005S3.95 17.021 1.499 16.5"/>
        <path d="M24.492 16.479l.005-4.02c-2.505.52-4.06-1.98-4.06-1.98h-.003s-1.186 2.057-3.621 2.057c-2.334 0-3.615-2.057-3.615-2.057h-.003s-1.186 2.057-3.621 2.057c-2.334 0-3.615-2.057-3.615-2.057h-.005S3.95 13.021 1.499 12.5l-.007 3.979"/>
        <path stroke-linecap="round" d="M20.101 7.498h1.391M18.362 3.608l1.043-1.044M13.492 1.89V.498M8.623 3.608L7.58 2.564M6.883 7.498H5.492M10.429 12.419a5 5 0 1 1 6.156.042"/>
    </g>
</svg>
